<svg width="54" height="50" viewBox="0 0 54 50" fill="none" xmlns="http://www.w3.org/2000/svg">
<path fill-rule="evenodd" clip-rule="evenodd" d="M1.3777 22.2222C0.108149 23.5021 0 24.5368 0 35.4167C0 46.2965 0.108149 47.3312 1.3777 48.6111C2.67549 49.9194 3.67364 50 18.5989 50C33.5242 50 34.5224 49.9194 35.8202 48.6111C37.0897 47.3312 37.1979 46.2965 37.1979 35.4167C37.1979 24.5368 37.0897 23.5021 35.8202 22.2222C34.5224 20.9139 33.5242 20.8333 18.5989 20.8333C3.67364 20.8333 2.67549 20.9139 1.3777 22.2222ZM45.9807 26.1132L41.331 29.2312V41.5993L46.2294 44.7937C48.9242 46.5514 51.6362 47.8903 52.2568 47.7694C53.2515 47.5764 53.3858 46.1056 53.3858 35.4069C53.3858 21.0326 53.4451 21.1069 45.9807 26.1132Z" fill="#00B1E9"/>
<path d="M14.4658 10.4167C14.4658 13.8684 11.6902 16.6667 8.2662 16.6667C4.84223 16.6667 2.06655 13.8684 2.06655 10.4167C2.06655 6.96489 4.84223 4.16667 8.2662 4.16667C11.6902 4.16667 14.4658 6.96489 14.4658 10.4167Z" fill="#00B1E9"/>
<path d="M37.1979 8.33333C37.1979 12.9357 33.497 16.6667 28.9317 16.6667C24.3664 16.6667 20.6655 12.9357 20.6655 8.33333C20.6655 3.73096 24.3664 0 28.9317 0C33.497 0 37.1979 3.73096 37.1979 8.33333Z" fill="#00B1E9"/>
</svg>
